<svg width="18" height="18" viewBox="0 0 18 18" fill="none" xmlns="http://www.w3.org/2000/svg">
<path d="M10.8 3.59999H13.5C14.04 3.59999 14.4 3.95999 14.4 4.49999V5.39999H2.69995V4.49999C2.69995 3.95999 3.14995 3.59999 3.59995 3.59999H6.29995C6.47995 2.60999 7.46995 1.79999 8.54995 1.79999C9.62995 1.79999 10.62 2.60999 10.8 3.59999ZM7.19995 3.59999H9.89995C9.71995 3.05999 9.08995 2.69999 8.54995 2.69999C8.00995 2.69999 7.37995 3.05999 7.19995 3.59999ZM3.59995 6.29999H13.5L12.69 15.39C12.69 15.84 12.24 16.2 11.79 16.2H5.30995C4.85995 16.2 4.49995 15.84 4.40995 15.39L3.59995 6.29999Z" fill="white"/>
</svg>
